<svg xmlns="http://www.w3.org/2000/svg" xmlns:xlink="http://www.w3.org/1999/xlink" width="500" zoomAndPan="magnify" viewBox="0 0 375 374.999991" height="500" preserveAspectRatio="xMidYMid meet" version="1.2"><defs><clipPath id="4099abca92"><path d="M 139 119.558594 L 211 119.558594 L 211 160 L 139 160 Z M 139 119.558594 "/></clipPath><clipPath id="28d6db8b72"><path d="M 119.558594 138.308594 L 119.558594 236.691406 C 119.558594 247.046875 127.953125 255.441406 138.308594 255.441406 L 236.691406 255.441406 C 247.046875 255.441406 255.441406 247.046875 255.441406 236.691406 L 255.441406 138.308594 C 255.441406 127.953125 247.046875 119.558594 236.691406 119.558594 L 138.308594 119.558594 C 127.953125 119.558594 119.558594 127.953125 119.558594 138.308594 Z M 119.558594 138.308594 "/></clipPath><clipPath id="3cd7013a56"><path d="M 119.558594 142 L 175 142 L 175 206 L 119.558594 206 Z M 119.558594 142 "/></clipPath><clipPath id="5f9dd800a8"><path d="M 119.558594 138.308594 L 119.558594 236.691406 C 119.558594 247.046875 127.953125 255.441406 138.308594 255.441406 L 236.691406 255.441406 C 247.046875 255.441406 255.441406 247.046875 255.441406 236.691406 L 255.441406 138.308594 C 255.441406 127.953125 247.046875 119.558594 236.691406 119.558594 L 138.308594 119.558594 C 127.953125 119.558594 119.558594 127.953125 119.558594 138.308594 Z M 119.558594 138.308594 "/></clipPath><clipPath id="3da4fe60f5"><path d="M 203 121 L 252 121 L 252 194 L 203 194 Z M 203 121 "/></clipPath><clipPath id="393fa80cba"><path d="M 119.558594 138.308594 L 119.558594 236.691406 C 119.558594 247.046875 127.953125 255.441406 138.308594 255.441406 L 236.691406 255.441406 C 247.046875 255.441406 255.441406 247.046875 255.441406 236.691406 L 255.441406 138.308594 C 255.441406 127.953125 247.046875 119.558594 236.691406 119.558594 L 138.308594 119.558594 C 127.953125 119.558594 119.558594 127.953125 119.558594 138.308594 Z M 119.558594 138.308594 "/></clipPath><clipPath id="6089d892a0"><path d="M 199 169 L 255.308594 169 L 255.308594 233 L 199 233 Z M 199 169 "/></clipPath><clipPath id="e8eff31d32"><path d="M 119.558594 138.308594 L 119.558594 236.691406 C 119.558594 247.046875 127.953125 255.441406 138.308594 255.441406 L 236.691406 255.441406 C 247.046875 255.441406 255.441406 247.046875 255.441406 236.691406 L 255.441406 138.308594 C 255.441406 127.953125 247.046875 119.558594 236.691406 119.558594 L 138.308594 119.558594 C 127.953125 119.558594 119.558594 127.953125 119.558594 138.308594 Z M 119.558594 138.308594 "/></clipPath><clipPath id="80e745c0dd"><path d="M 163 215 L 236 215 L 236 255.308594 L 163 255.308594 Z M 163 215 "/></clipPath><clipPath id="ff9fd6bfde"><path d="M 119.558594 138.308594 L 119.558594 236.691406 C 119.558594 247.046875 127.953125 255.441406 138.308594 255.441406 L 236.691406 255.441406 C 247.046875 255.441406 255.441406 247.046875 255.441406 236.691406 L 255.441406 138.308594 C 255.441406 127.953125 247.046875 119.558594 236.691406 119.558594 L 138.308594 119.558594 C 127.953125 119.558594 119.558594 127.953125 119.558594 138.308594 Z M 119.558594 138.308594 "/></clipPath><clipPath id="207fb25560"><path d="M 123 181 L 170 181 L 170 254 L 123 254 Z M 123 181 "/></clipPath><clipPath id="dd8b253318"><path d="M 119.558594 138.308594 L 119.558594 236.691406 C 119.558594 247.046875 127.953125 255.441406 138.308594 255.441406 L 236.691406 255.441406 C 247.046875 255.441406 255.441406 247.046875 255.441406 236.691406 L 255.441406 138.308594 C 255.441406 127.953125 247.046875 119.558594 236.691406 119.558594 L 138.308594 119.558594 C 127.953125 119.558594 119.558594 127.953125 119.558594 138.308594 Z M 119.558594 138.308594 "/></clipPath></defs><g id="d12847bbbf"><g clip-rule="nonzero" clip-path="url(#4099abca92)"><g clip-rule="nonzero" clip-path="url(#28d6db8b72)"><path style=" stroke:none;fill-rule:nonzero;fill:#242424;fill-opacity:1;" d="M 210.644531 159.007812 L 199.976562 120.726562 C 178.71875 116.761719 155.910156 122.980469 139.457031 139.429688 C 139.378906 139.511719 139.296875 139.621094 139.1875 139.703125 Z M 210.644531 159.007812 "/></g></g><g clip-rule="nonzero" clip-path="url(#3cd7013a56)"><g clip-rule="nonzero" clip-path="url(#5f9dd800a8)"><path style=" stroke:none;fill-rule:nonzero;fill:#242424;fill-opacity:1;" d="M 174.835938 152.707031 L 136.664062 142.390625 C 120.941406 160.09375 116.054688 183.984375 122 205.542969 Z M 174.835938 152.707031 "/></g></g><g clip-rule="nonzero" clip-path="url(#3da4fe60f5)"><g clip-rule="nonzero" clip-path="url(#393fa80cba)"><path style=" stroke:none;fill-rule:nonzero;fill:#242424;fill-opacity:1;" d="M 251.777344 165.792969 C 248.546875 156.15625 243.089844 147.113281 235.433594 139.429688 C 226.3125 130.308594 215.234375 124.335938 203.558594 121.484375 L 223.730469 193.8125 Z M 251.777344 165.792969 "/></g></g><g clip-rule="nonzero" clip-path="url(#6089d892a0)"><g clip-rule="nonzero" clip-path="url(#e8eff31d32)"><path style=" stroke:none;fill-rule:nonzero;fill:#242424;fill-opacity:1;" d="M 199.867188 222.292969 L 237.933594 232.773438 C 253.867188 215.070312 258.835938 190.988281 252.835938 169.324219 Z M 199.867188 222.292969 "/></g></g><g clip-rule="nonzero" clip-path="url(#80e745c0dd)"><g clip-rule="nonzero" clip-path="url(#ff9fd6bfde)"><path style=" stroke:none;fill-rule:nonzero;fill:#242424;fill-opacity:1;" d="M 163.511719 215.667969 L 173.503906 253.867188 C 195.144531 258.375 218.574219 252.238281 235.378906 235.460938 Z M 163.511719 215.667969 "/></g></g><g clip-rule="nonzero" clip-path="url(#207fb25560)"><g clip-rule="nonzero" clip-path="url(#dd8b253318)"><path style=" stroke:none;fill-rule:nonzero;fill:#242424;fill-opacity:1;" d="M 123.085938 209.070312 C 126.316406 218.710938 131.773438 227.75 139.429688 235.433594 C 148.199219 244.203125 158.761719 250.066406 169.921875 253.027344 L 151.078125 181.078125 Z M 123.085938 209.070312 "/></g></g></g></svg>