<svg xmlns="http://www.w3.org/2000/svg" xmlns:xlink="http://www.w3.org/1999/xlink" width="500" zoomAndPan="magnify" viewBox="0 0 375 374.999991" height="500" preserveAspectRatio="xMidYMid meet" version="1.2"><defs><clipPath id="9686c08f93"><path d="M 60 9.078125 L 249 9.078125 L 249 113 L 60 113 Z M 60 9.078125 "/></clipPath><clipPath id="d477473864"><path d="M 9.078125 27.828125 L 9.078125 347.171875 C 9.078125 357.527344 17.472656 365.921875 27.828125 365.921875 L 347.171875 365.921875 C 357.527344 365.921875 365.921875 357.527344 365.921875 347.171875 L 365.921875 27.828125 C 365.921875 17.472656 357.527344 9.078125 347.171875 9.078125 L 27.828125 9.078125 C 17.472656 9.078125 9.078125 17.472656 9.078125 27.828125 Z M 9.078125 27.828125 "/></clipPath><clipPath id="556bf70f36"><path d="M 9.078125 69 L 155 69 L 155 236 L 9.078125 236 Z M 9.078125 69 "/></clipPath><clipPath id="a9abf22ebc"><path d="M 9.078125 27.828125 L 9.078125 347.171875 C 9.078125 357.527344 17.472656 365.921875 27.828125 365.921875 L 347.171875 365.921875 C 357.527344 365.921875 365.921875 357.527344 365.921875 347.171875 L 365.921875 27.828125 C 365.921875 17.472656 357.527344 9.078125 347.171875 9.078125 L 27.828125 9.078125 C 17.472656 9.078125 9.078125 17.472656 9.078125 27.828125 Z M 9.078125 27.828125 "/></clipPath><clipPath id="6fc6bc5564"><path d="M 229 14 L 357 14 L 357 205 L 229 205 Z M 229 14 "/></clipPath><clipPath id="78c22b3345"><path d="M 9.078125 27.828125 L 9.078125 347.171875 C 9.078125 357.527344 17.472656 365.921875 27.828125 365.921875 L 347.171875 365.921875 C 357.527344 365.921875 365.921875 357.527344 365.921875 347.171875 L 365.921875 27.828125 C 365.921875 17.472656 357.527344 9.078125 347.171875 9.078125 L 27.828125 9.078125 C 17.472656 9.078125 9.078125 17.472656 9.078125 27.828125 Z M 9.078125 27.828125 "/></clipPath><clipPath id="d971cbb0ca"><path d="M 220 139 L 366 139 L 366 307 L 220 307 Z M 220 139 "/></clipPath><clipPath id="2901be4364"><path d="M 9.078125 27.828125 L 9.078125 347.171875 C 9.078125 357.527344 17.472656 365.921875 27.828125 365.921875 L 347.171875 365.921875 C 357.527344 365.921875 365.921875 357.527344 365.921875 347.171875 L 365.921875 27.828125 C 365.921875 17.472656 357.527344 9.078125 347.171875 9.078125 L 27.828125 9.078125 C 17.472656 9.078125 9.078125 17.472656 9.078125 27.828125 Z M 9.078125 27.828125 "/></clipPath><clipPath id="226bccbb25"><path d="M 124 261 L 314 261 L 314 366 L 124 366 Z M 124 261 "/></clipPath><clipPath id="9698c93d19"><path d="M 9.078125 27.828125 L 9.078125 347.171875 C 9.078125 357.527344 17.472656 365.921875 27.828125 365.921875 L 347.171875 365.921875 C 357.527344 365.921875 365.921875 357.527344 365.921875 347.171875 L 365.921875 27.828125 C 365.921875 17.472656 357.527344 9.078125 347.171875 9.078125 L 27.828125 9.078125 C 17.472656 9.078125 9.078125 17.472656 9.078125 27.828125 Z M 9.078125 27.828125 "/></clipPath><clipPath id="d0db722272"><path d="M 18 170 L 142 170 L 142 360 L 18 360 Z M 18 170 "/></clipPath><clipPath id="ec4502a7d9"><path d="M 9.078125 27.828125 L 9.078125 347.171875 C 9.078125 357.527344 17.472656 365.921875 27.828125 365.921875 L 347.171875 365.921875 C 357.527344 365.921875 365.921875 357.527344 365.921875 347.171875 L 365.921875 27.828125 C 365.921875 17.472656 357.527344 9.078125 347.171875 9.078125 L 27.828125 9.078125 C 17.472656 9.078125 9.078125 17.472656 9.078125 27.828125 Z M 9.078125 27.828125 "/></clipPath></defs><g id="9cfd595daa"><g clip-rule="nonzero" clip-path="url(#9686c08f93)"><g clip-rule="nonzero" clip-path="url(#d477473864)"><path style=" stroke:none;fill-rule:nonzero;fill:#242424;fill-opacity:1;" d="M 248.515625 112.773438 L 220.464844 12.144531 C 164.585938 1.726562 104.636719 18.070312 61.390625 61.316406 C 61.175781 61.53125 60.960938 61.816406 60.675781 62.03125 Z M 248.515625 112.773438 "/></g></g><g clip-rule="nonzero" clip-path="url(#556bf70f36)"><g clip-rule="nonzero" clip-path="url(#a9abf22ebc)"><path style=" stroke:none;fill-rule:nonzero;fill:#242424;fill-opacity:1;" d="M 154.378906 96.214844 L 54.039062 69.097656 C 12.714844 115.628906 -0.128906 178.429688 15.5 235.097656 Z M 154.378906 96.214844 "/></g></g><g clip-rule="nonzero" clip-path="url(#6fc6bc5564)"><g clip-rule="nonzero" clip-path="url(#78c22b3345)"><path style=" stroke:none;fill-rule:nonzero;fill:#242424;fill-opacity:1;" d="M 356.636719 130.613281 C 348.140625 105.28125 333.796875 81.515625 313.671875 61.316406 C 289.691406 37.339844 260.574219 21.636719 229.886719 14.144531 L 282.914062 204.265625 Z M 356.636719 130.613281 "/></g></g><g clip-rule="nonzero" clip-path="url(#d971cbb0ca)"><g clip-rule="nonzero" clip-path="url(#2901be4364)"><path style=" stroke:none;fill-rule:nonzero;fill:#242424;fill-opacity:1;" d="M 220.179688 279.128906 L 320.238281 306.679688 C 362.128906 260.148438 375.191406 196.84375 359.417969 139.894531 Z M 220.179688 279.128906 "/></g></g><g clip-rule="nonzero" clip-path="url(#226bccbb25)"><g clip-rule="nonzero" clip-path="url(#9698c93d19)"><path style=" stroke:none;fill-rule:nonzero;fill:#242424;fill-opacity:1;" d="M 124.621094 261.714844 L 150.882812 362.128906 C 207.761719 373.976562 269.351562 357.847656 313.53125 313.742188 Z M 124.621094 261.714844 "/></g></g><g clip-rule="nonzero" clip-path="url(#d0db722272)"><g clip-rule="nonzero" clip-path="url(#ec4502a7d9)"><path style=" stroke:none;fill-rule:nonzero;fill:#242424;fill-opacity:1;" d="M 18.355469 244.375 C 26.847656 269.710938 41.191406 293.476562 61.316406 313.671875 C 84.371094 336.722656 112.132812 352.140625 141.464844 359.917969 L 91.933594 170.796875 Z M 18.355469 244.375 "/></g></g></g></svg>